<svg width="137" height="137" viewBox="0 0 137 137" fill="none" xmlns="http://www.w3.org/2000/svg">
<path fill-rule="evenodd" clip-rule="evenodd" d="M30 2H107C122.464 2 135 14.536 135 30V107C135 122.464 122.464 135 107 135H30C14.536 135 2 122.464 2 107V30C2 14.536 14.536 2 30 2ZM0 30C0 13.4315 13.4315 0 30 0H107C123.569 0 137 13.4315 137 30V107C137 123.569 123.569 137 107 137H30C13.4315 137 0 123.569 0 107V30ZM91.9838 71.4143C91.9838 70.862 91.5361 70.4143 90.9838 70.4143L72.4124 70.4143V46.0143C72.4124 45.462 71.9647 45.0143 71.4124 45.0143C70.8601 45.0143 70.4124 45.462 70.4124 46.0143V70.4143L46.0124 70.4143C45.4601 70.4143 45.0124 70.862 45.0124 71.4143C45.0124 71.9666 45.4601 72.4143 46.0124 72.4143H70.4124V90.9857C70.4124 91.538 70.8601 91.9857 71.4124 91.9857C71.9647 91.9857 72.4124 91.538 72.4124 90.9857V72.4143H90.9838C91.5361 72.4143 91.9838 71.9666 91.9838 71.4143Z" fill="black"/>
</svg>
